<?xml version="1.0" encoding="UTF-8" standalone="no"?>
<svg
   xmlns:dc="http://purl.org/dc/elements/1.1/"
   xmlns:cc="http://creativecommons.org/ns#"
   xmlns:rdf="http://www.w3.org/1999/02/22-rdf-syntax-ns#"
   xmlns:svg="http://www.w3.org/2000/svg"
   xmlns="http://www.w3.org/2000/svg"
   xmlns:sodipodi="http://sodipodi.sourceforge.net/DTD/sodipodi-0.dtd"
   xmlns:inkscape="http://www.inkscape.org/namespaces/inkscape"
   enable-background="new 0 0 56.693 56.693"
   height="56.693px"
   id="Layer_1"
   version="1.1"
   viewBox="0 0 56.693 56.693"
   width="56.693px"
   xml:space="preserve"
   sodipodi:docname="104447_apple_logo_icon.svg"
   inkscape:version="1.0.2 (e86c8708, 2021-01-15)"><metadata
     id="metadata927"><rdf:RDF><cc:Work
         rdf:about=""><dc:format>image/svg+xml</dc:format><dc:type
           rdf:resource="http://purl.org/dc/dcmitype/StillImage" /></cc:Work></rdf:RDF></metadata><defs
     id="defs925" /><sodipodi:namedview
     pagecolor="#ffffff"
     bordercolor="#666666"
     borderopacity="1"
     objecttolerance="10"
     gridtolerance="10"
     guidetolerance="10"
     inkscape:pageopacity="0"
     inkscape:pageshadow="2"
     inkscape:window-width="776"
     inkscape:window-height="480"
     id="namedview923"
     showgrid="false"
     inkscape:zoom="8.9958195"
     inkscape:cx="28.3465"
     inkscape:cy="28.3465"
     inkscape:window-x="0"
     inkscape:window-y="0"
     inkscape:window-maximized="0"
     inkscape:current-layer="Layer_1" /><path
     d="M28.347,5.155c-13.6,0-24.625,11.025-24.625,24.625c0,13.602,11.025,24.625,24.625,24.625  c13.6,0,24.625-11.023,24.625-24.625C52.972,16.18,41.946,5.155,28.347,5.155z M29.759,15.141c1.117-1.311,3.006-2.283,4.564-2.346  c0.199,1.816-0.533,3.637-1.613,4.947c-1.084,1.309-2.857,2.328-4.598,2.193C27.878,18.157,28.755,16.301,29.759,15.141z   M38.626,39.94c-1.293,1.889-2.633,3.771-4.744,3.809c-2.076,0.039-2.744-1.23-5.115-1.23c-2.373,0-3.115,1.193-5.08,1.27  c-2.037,0.076-3.589-2.037-4.892-3.92c-2.665-3.848-4.698-10.875-1.964-15.619c1.354-2.358,3.78-3.846,6.411-3.887  c2.004-0.037,3.893,1.35,5.115,1.35c1.225,0,3.521-1.666,5.936-1.42c1.01,0.041,3.846,0.406,5.668,3.071  c-0.146,0.092-3.387,1.977-3.348,5.902c0.043,4.689,4.113,6.246,4.16,6.27C40.735,35.642,40.12,37.757,38.626,39.94z"
     id="path920"
     style="fill:#ffffff" /></svg>
