<?xml version="1.0" encoding="UTF-8" standalone="no"?>
<svg
   xmlns:dc="http://purl.org/dc/elements/1.1/"
   xmlns:cc="http://creativecommons.org/ns#"
   xmlns:rdf="http://www.w3.org/1999/02/22-rdf-syntax-ns#"
   xmlns:svg="http://www.w3.org/2000/svg"
   xmlns="http://www.w3.org/2000/svg"
   xmlns:sodipodi="http://sodipodi.sourceforge.net/DTD/sodipodi-0.dtd"
   xmlns:inkscape="http://www.inkscape.org/namespaces/inkscape"
   enable-background="new 0 0 512 512"
   id="Layer_1"
   version="1.1"
   viewBox="0 0 512 512"
   xml:space="preserve"
   sodipodi:docname="1632496_amazon_circle_ecommerce_round icon_shopping_icon.svg"
   inkscape:version="1.0.2 (e86c8708, 2021-01-15)"><metadata
     id="metadata3823"><rdf:RDF><cc:Work
         rdf:about=""><dc:format>image/svg+xml</dc:format><dc:type
           rdf:resource="http://purl.org/dc/dcmitype/StillImage" /></cc:Work></rdf:RDF></metadata><defs
     id="defs3821" /><sodipodi:namedview
     pagecolor="#ffffff"
     bordercolor="#666666"
     borderopacity="1"
     objecttolerance="10"
     gridtolerance="10"
     guidetolerance="10"
     inkscape:pageopacity="0"
     inkscape:pageshadow="2"
     inkscape:window-width="1280"
     inkscape:window-height="800"
     id="namedview3819"
     showgrid="false"
     inkscape:zoom="0.66919157"
     inkscape:cx="428.44104"
     inkscape:cy="424.30906"
     inkscape:window-x="0"
     inkscape:window-y="0"
     inkscape:window-maximized="0"
     inkscape:current-layer="Layer_1" /><path
     id="path4964"
     style="fill:#ffffff"
     d="M 256 0 C 114.6 0 0 114.6 0 256 C 0 397.4 114.6 512 256 512 C 397.4 512 512 397.4 512 256 C 512 114.6 397.4 0 256 0 z M 261.09961 116.40039 L 268 116.40039 C 272 116.40039 276.28789 116.68789 280.67383 117.30664 C 282.8668 117.61602 285.08418 118.00781 287.30273 118.48828 C 289.52129 118.96875 291.74063 119.53672 293.9375 120.19922 C 296.13437 120.86172 298.30762 121.61914 300.43555 122.47461 C 302.56348 123.33008 304.64648 124.28437 306.6582 125.34375 C 308.66992 126.40313 310.61074 127.56758 312.45898 128.8418 C 314.30723 130.11602 316.06172 131.5 317.69922 133 C 319.69922 134.8625 321.42344 136.80488 322.9082 138.82031 C 324.39297 140.83574 325.63828 142.92461 326.68359 145.08008 C 327.72891 147.23555 328.57422 149.45762 329.25586 151.74023 C 329.9375 154.02285 330.45586 156.36484 330.84961 158.76172 C 331.24336 161.15859 331.51172 163.61113 331.69336 166.10938 C 331.875 168.60762 331.97031 171.15156 332.01562 173.73828 C 332.10625 178.91172 332 184.24922 332 189.69922 L 332 241.30078 C 332 243.22578 332.09863 245.01719 332.2832 246.69531 C 332.46777 248.37344 332.7375 249.9375 333.08203 251.40625 C 333.42656 252.875 333.84629 254.24805 334.32617 255.54492 C 334.80605 256.8418 335.34688 258.06211 335.9375 259.22461 C 337.11875 261.54961 338.49609 263.64375 339.97266 265.65625 C 341.44922 267.66875 343.02461 269.59961 344.59961 271.59961 C 345.02461 272.32461 345.38086 273.08125 345.63086 273.84375 C 345.88086 274.60625 346.02539 275.375 346.02539 276.125 C 346.02539 276.875 345.88164 277.60547 345.55664 278.29297 C 345.23164 278.98047 344.725 279.62422 344 280.19922 C 337.7 285.99922 325.70078 296.3 318.80078 302 C 318.22578 302.45 317.61953 302.78711 316.98828 303.02148 C 316.35703 303.25586 315.70039 303.38828 315.02539 303.42578 C 313.67539 303.50078 312.25078 303.19961 310.80078 302.59961 C 308.07578 300.29961 305.92539 298.32461 304.13477 296.52148 C 302.34414 294.71836 300.9125 293.08711 299.625 291.47461 C 297.05 288.24961 295.05039 285.10078 291.90039 280.80078 C 289.17539 283.67578 286.56211 286.22539 284.00586 288.48633 C 281.44961 290.74727 278.94922 292.71875 276.44922 294.4375 C 273.94922 296.15625 271.45078 297.62266 268.89453 298.87109 C 266.33828 300.11953 263.725 301.15 261 302 C 257.6 302.85 254.04922 303.54961 250.19922 304.03711 C 246.34922 304.52461 242.19961 304.80078 237.59961 304.80078 C 234.16211 304.80078 230.81504 304.53047 227.58984 303.99414 C 224.36465 303.45781 221.26133 302.6543 218.31055 301.58398 C 215.35977 300.51367 212.56152 299.17813 209.94727 297.57617 C 208.64014 296.7752 207.37932 295.90806 206.16797 294.97461 C 204.95662 294.04116 203.79531 293.04023 202.6875 291.97461 C 201.57969 290.90898 200.52581 289.77759 199.5293 288.58008 C 198.53279 287.38257 197.59424 286.12012 196.7168 284.79102 C 195.83936 283.46191 195.02209 282.06587 194.27148 280.60547 C 193.52087 279.14507 192.83672 277.61875 192.2207 276.02734 C 191.60469 274.43594 191.05764 272.78071 190.58398 271.05859 C 190.11033 269.33647 189.71025 267.54785 189.38672 265.69531 C 189.06318 263.84277 188.81604 261.92603 188.65039 259.94336 C 188.48474 257.96069 188.40039 255.91328 188.40039 253.80078 C 188.40039 250.43828 188.62422 247.20879 189.05664 244.11719 C 189.48906 241.02559 190.12891 238.07031 190.96484 235.25391 C 191.80078 232.4375 192.83242 229.75957 194.04297 227.22266 C 195.25352 224.68574 196.64297 222.29023 198.19922 220.03711 C 199.75547 217.78398 201.47852 215.67402 203.35156 213.70898 C 205.22461 211.74395 207.24922 209.92461 209.41016 208.25195 C 211.57109 206.5793 213.86719 205.05371 216.28711 203.67773 C 218.70703 202.30176 221.25039 201.075 223.90039 200 C 226.62539 198.725 229.49375 197.62539 232.46875 196.66602 C 235.44375 195.70664 238.52578 194.88828 241.67578 194.17578 C 244.82578 193.46328 248.04297 192.85664 251.29297 192.32227 C 254.54297 191.78789 257.82461 191.32539 261.09961 190.90039 C 269.69961 189.80039 278.29922 189.19961 285.69922 188.59961 L 285.69922 184.09961 C 285.69922 180.09961 285.85078 175.79922 285.42578 171.63672 C 285.21328 169.55547 284.85626 167.50859 284.26562 165.55078 C 283.675 163.59297 282.84922 161.725 281.69922 160 C 280.69922 158.575 279.48125 157.32539 278.10938 156.25195 C 276.7375 155.17852 275.21211 154.28125 273.59961 153.5625 C 271.98711 152.84375 270.28828 152.30234 268.56641 151.94141 C 266.84453 151.58047 265.10039 151.40039 263.40039 151.40039 L 261.09961 151.40039 C 259.67461 151.53789 258.26699 151.75645 256.88867 152.05859 C 255.51035 152.36074 254.1625 152.7457 252.85547 153.2168 C 251.54844 153.68789 250.28145 154.24434 249.07031 154.88867 C 247.85918 155.53301 246.70391 156.26602 245.61328 157.08789 C 244.52266 157.90977 243.49824 158.82051 242.55273 159.82422 C 241.60723 160.82793 240.74062 161.92344 239.96484 163.11328 C 239.18906 164.30312 238.50332 165.58848 237.92188 166.96875 C 237.34043 168.34902 236.8625 169.82539 236.5 171.40039 C 236.35 172.12539 236.13086 172.84375 235.83398 173.52344 C 235.53711 174.20312 235.16172 174.84336 234.69922 175.41211 C 234.23672 175.98086 233.68789 176.47891 233.04102 176.87109 C 232.39414 177.26328 231.65078 177.54922 230.80078 177.69922 L 198.80078 173.69922 C 198.22578 173.54922 197.58203 173.33125 196.95703 173.01562 C 196.33203 172.7 195.72461 172.2875 195.22461 171.75 C 194.72461 171.2125 194.33086 170.55 194.13086 169.73438 C 193.93086 168.91875 193.92422 167.95078 194.19922 166.80078 C 194.63047 164.54453 195.15583 162.37847 195.76758 160.30273 C 196.37932 158.227 197.07764 156.24121 197.85742 154.33984 C 198.63721 152.43848 199.49822 150.62183 200.43359 148.88867 C 201.36897 147.15552 202.37852 145.50469 203.45703 143.93359 C 204.53555 142.3625 205.68337 140.87222 206.89258 139.45703 C 208.10178 138.04185 209.37373 136.70293 210.70117 135.4375 C 212.02861 134.17207 213.41052 132.97925 214.84375 131.85742 C 216.27698 130.7356 217.76055 129.68359 219.28711 128.69922 C 222.34023 126.73047 225.56816 125.03203 228.91992 123.57617 C 232.27168 122.12031 235.74805 120.9082 239.29883 119.91602 C 242.84961 118.92383 246.4748 118.15 250.125 117.57227 C 253.7752 116.99453 257.44961 116.61289 261.09961 116.40039 z M 389.01172 326.83008 C 391.12637 326.81758 393.16602 326.88789 395.08789 327.02539 C 398.93164 327.30039 402.31016 327.84375 404.90234 328.53125 C 406.19844 328.875 407.29707 329.2543 408.16016 329.6543 C 409.02324 330.0543 409.65 330.47539 410 330.90039 C 410.3 331.35039 410.59922 332.04922 410.82422 332.94922 C 411.04922 333.84922 411.19922 334.94922 411.19922 336.19922 L 411.19922 338.09961 C 411.12422 340.89961 410.70078 344.34414 409.88672 348.11914 C 409.47969 350.00664 408.97363 351.97617 408.36719 353.99023 C 407.76074 356.0043 407.05391 358.0625 406.23828 360.125 C 405.42266 362.1875 404.49941 364.2543 403.46484 366.28711 C 402.43027 368.31992 401.28281 370.31914 400.01953 372.24414 C 398.75625 374.16914 397.37676 376.0207 395.875 377.75977 C 394.37324 379.49883 392.75 381.12461 391 382.59961 C 390.3 383.14961 389.60625 383.4875 388.97656 383.63281 C 388.34688 383.77812 387.78164 383.73047 387.33789 383.51172 C 386.89414 383.29297 386.57187 382.90352 386.42969 382.36133 C 386.2875 381.81914 386.32461 381.12578 386.59961 380.30078 C 387.59961 377.80078 388.93164 374.48711 390.29883 370.8418 C 391.66602 367.19648 393.06914 363.21797 394.21289 359.38672 C 394.78477 357.47109 395.29199 355.59277 395.69727 353.81055 C 396.10254 352.02832 396.40547 350.34336 396.57031 348.81445 C 396.73516 347.28555 396.76074 345.91348 396.61133 344.75781 C 396.46191 343.60215 396.13711 342.6625 395.59961 342 C 395.21211 341.5 394.675 341.06816 394.00977 340.69531 C 393.34453 340.32246 392.55078 340.0082 391.65234 339.74805 C 389.85547 339.22773 387.63828 338.91797 385.17578 338.76172 C 382.71328 338.60547 380.00625 338.60312 377.23438 338.69531 C 374.46249 338.7875 371.62539 338.97422 368.90039 339.19922 C 364.00039 339.89922 359.59922 340.20078 356.19922 340.80078 C 355.42422 340.87578 354.80703 340.75664 354.36328 340.50195 C 353.91953 340.24727 353.64922 339.85547 353.57422 339.38672 C 353.49922 338.91797 353.61797 338.37187 353.94922 337.80469 C 354.28047 337.2375 354.82461 336.64961 355.59961 336.09961 C 357.64961 334.69961 359.75039 333.47539 361.96289 332.40039 C 364.17539 331.32539 366.5 330.39961 369 329.59961 C 371.2125 328.94961 373.46855 328.42969 375.72852 328.02344 C 377.98848 327.61719 380.25313 327.32461 382.48047 327.13086 C 384.70781 326.93711 386.89707 326.84258 389.01172 326.83008 z M 106.20508 332.85547 C 106.97539 332.73203 107.90039 332.87539 108.90039 333.40039 C 114.30039 336.55039 119.85996 339.54492 125.5625 342.375 C 131.26504 345.20508 137.10938 347.8703 143.08203 350.35938 C 149.05469 352.84843 155.15488 355.16211 161.36523 357.28906 C 167.57559 359.41602 173.89687 361.35586 180.3125 363.09961 C 186.72813 364.84336 193.2377 366.39102 199.82617 367.73047 C 206.41465 369.06992 213.08164 370.20117 219.81055 371.11523 C 226.53945 372.0293 233.33105 372.72578 240.16797 373.19336 C 247.00488 373.66094 253.88828 373.90039 260.80078 373.90039 C 265.15078 373.90039 269.54434 373.79766 273.97266 373.58984 C 278.40098 373.38203 282.86328 373.06914 287.35156 372.65039 C 291.83984 372.23164 296.35293 371.70703 300.88281 371.07422 C 305.4127 370.44141 309.95859 369.69961 314.51172 368.84961 C 319.06484 367.99961 323.62559 367.04102 328.18359 365.9707 C 332.7416 364.90039 337.29727 363.71953 341.8418 362.42578 C 346.38633 361.13203 350.9209 359.72539 355.43359 358.20508 C 359.94629 356.68477 364.43789 355.05078 368.90039 353.30078 C 371.40039 352.40078 374.19922 351.09922 376.69922 350.19922 C 377.39922 349.88672 378.09023 349.71348 378.75195 349.6543 C 379.41367 349.59512 380.04648 349.65 380.63086 349.80078 C 381.21523 349.95156 381.75078 350.19824 382.21875 350.51562 C 382.68672 350.83302 383.08789 351.22148 383.40039 351.66211 C 383.71289 352.10273 383.93672 352.59473 384.05469 353.11523 C 384.17266 353.63574 384.18398 354.18516 384.06836 354.74219 C 383.95273 355.29922 383.71055 355.86387 383.32227 356.41406 C 382.93398 356.96426 382.39922 357.5 381.69922 358 C 379.69922 359.55 377.625 361.02578 375.5 362.42578 C 373.375 363.82578 371.2 365.15039 369 366.40039 C 364.925 368.85039 360.70098 371.15508 356.35547 373.3125 C 352.00996 375.46992 347.54336 377.47891 342.98633 379.33984 C 338.4293 381.20078 333.77988 382.91406 329.07031 384.47461 C 324.36074 386.03516 319.59023 387.44297 314.78711 388.69922 C 309.98398 389.95547 305.14824 391.05977 300.31055 392.00781 C 295.47285 392.95586 290.63359 393.74883 285.82031 394.38477 C 281.00703 395.0207 276.22012 395.49844 271.49023 395.81836 C 266.76035 396.13828 262.0875 396.30078 257.5 396.30078 C 253.8125 396.30078 250.14919 396.21542 246.51172 396.04688 C 242.87424 395.87831 239.26201 395.62656 235.67773 395.29297 C 232.09346 394.95938 228.53767 394.54395 225.00977 394.04883 C 221.48186 393.55371 217.98203 392.97734 214.51367 392.32422 C 207.57695 391.01797 200.76348 389.39961 194.08398 387.48242 C 187.40449 385.56523 180.85977 383.34961 174.46289 380.84961 C 168.06602 378.34961 161.81543 375.56641 155.72656 372.51172 C 149.6377 369.45703 143.71055 366.13203 137.95508 362.55078 C 132.19961 358.96953 126.61738 355.13047 121.2207 351.05078 C 115.82402 346.97109 110.61211 342.64961 105.59961 338.09961 C 104.72461 337.39961 104.24336 336.62461 104.07617 335.88867 C 103.90898 335.15273 104.05625 334.45586 104.4375 333.91211 C 104.81875 333.36836 105.43477 332.97891 106.20508 332.85547 z " /><path
     id="path4953"
     d="M 285.69922 214.90039 C 281.39922 214.90039 277.09922 215.04961 272.94922 215.41211 C 268.79922 215.77461 264.79961 216.34922 261.09961 217.19922 C 259.38711 217.69922 257.71855 218.27207 256.10938 218.92578 C 254.5002 219.57949 252.95078 220.31523 251.47656 221.14258 C 250.00234 221.96992 248.60254 222.88926 247.29492 223.91016 C 245.9873 224.93105 244.77148 226.05273 243.66211 227.28711 C 242.55273 228.52148 241.55137 229.86816 240.67188 231.33594 C 239.79238 232.80371 239.03594 234.39219 238.41797 236.11328 C 237.8 237.83437 237.31895 239.6873 236.99414 241.68164 C 236.66934 243.67598 236.5 245.81211 236.5 248.09961 C 236.5 249.89961 236.61484 251.62617 236.8418 253.26953 C 237.06875 254.91289 237.4082 256.47422 237.85352 257.94141 C 238.29883 259.40859 238.85078 260.78125 239.50586 262.05273 C 240.16094 263.32422 240.91914 264.49453 241.77539 265.55078 C 242.63164 266.60703 243.58594 267.54961 244.63477 268.37109 C 245.68359 269.19258 246.82578 269.8918 248.05859 270.45898 C 249.29141 271.02617 250.61523 271.4625 252.02344 271.75586 C 253.43164 272.04922 254.925 272.19922 256.5 272.19922 C 258.3 272.19922 259.99961 271.59961 261.09961 271.59961 C 262.94961 271.17461 264.76953 270.53125 266.51953 269.67969 C 268.26953 268.82812 269.95039 267.76797 271.52539 266.51172 C 273.10039 265.25547 274.56953 263.80313 275.89453 262.16406 C 277.21953 260.525 278.40039 258.69922 279.40039 256.69922 C 280.26289 255.27422 281.0084 253.86719 281.65234 252.46875 C 282.29629 251.07031 282.83789 249.68047 283.29492 248.29297 C 284.20898 245.51797 284.78047 242.75078 285.13672 239.92578 C 285.49297 237.10078 285.63398 234.21875 285.68555 231.21875 C 285.73711 228.21875 285.69922 225.10078 285.69922 221.80078 L 285.69922 214.90039 z "
     style="fill:#ffffff" /></svg>
