<?xml version="1.0" encoding="UTF-8" standalone="no"?>
<svg
   xmlns:dc="http://purl.org/dc/elements/1.1/"
   xmlns:cc="http://creativecommons.org/ns#"
   xmlns:rdf="http://www.w3.org/1999/02/22-rdf-syntax-ns#"
   xmlns:svg="http://www.w3.org/2000/svg"
   xmlns="http://www.w3.org/2000/svg"
   xmlns:sodipodi="http://sodipodi.sourceforge.net/DTD/sodipodi-0.dtd"
   xmlns:inkscape="http://www.inkscape.org/namespaces/inkscape"
   version="1.1"
   id="Слой_1"
   x="0px"
   y="0px"
   viewBox="0 0 300 300"
   enable-background="new 0 0 400 400"
   xml:space="preserve"
   inkscape:version="1.0.2 (e86c8708, 2021-01-15)"
   sodipodi:docname="YouTube_social_red_circle_(2017).svg"
   width="300"
   height="300"><metadata
     id="metadata17"><rdf:RDF><cc:Work
         rdf:about=""><dc:format>image/svg+xml</dc:format><dc:type
           rdf:resource="http://purl.org/dc/dcmitype/StillImage" /><dc:title /></cc:Work></rdf:RDF></metadata><defs
     id="defs15"><pattern
       y="0"
       x="0"
       height="6"
       width="6"
       patternUnits="userSpaceOnUse"
       id="EMFhbasepattern" /></defs><sodipodi:namedview
     pagecolor="#ffffff"
     bordercolor="#666666"
     borderopacity="1"
     objecttolerance="10"
     gridtolerance="10"
     guidetolerance="10"
     inkscape:pageopacity="0"
     inkscape:pageshadow="2"
     inkscape:window-width="1280"
     inkscape:window-height="690"
     id="namedview13"
     showgrid="false"
     inkscape:zoom="1.18"
     inkscape:cx="262.33409"
     inkscape:cy="190.70609"
     inkscape:window-x="131"
     inkscape:window-y="0"
     inkscape:window-maximized="0"
     inkscape:current-layer="Слой_1"
     fit-margin-top="0"
     fit-margin-left="0"
     fit-margin-right="0"
     fit-margin-bottom="0"
     inkscape:document-rotation="0" /><path
     id="rect4"
     style="fill:#ffffff;fill-opacity:1"
     d="M 129.82227 119.70312 L 129.82227 180.29688 L 182.42188 150.0625 L 129.82227 119.70312 z " /><path
     id="path3796"
     style="fill:#ffffff;fill-opacity:1"
     d="M 150 0 C 66.9 0 0 66.9 0 150 C 0 233.1 66.9 300 150 300 C 233.1 300 300 233.1 300 150 C 300 66.9 233.1 0 150 0 z M 149.9375 79.222656 C 149.9375 79.222656 165.77436 79.222875 183.59375 79.769531 C 192.50344 80.042859 201.90834 80.453409 210.07812 81.068359 C 214.16302 81.375835 217.93889 81.733843 221.18945 82.152344 C 224.44002 82.570844 227.16509 83.049097 229.14844 83.595703 C 231.30363 84.157929 233.34868 85.008446 235.24023 86.103516 C 237.13179 87.198585 238.87003 88.537994 240.4082 90.076172 C 241.94638 91.614349 243.28579 93.352591 244.38086 95.244141 C 245.47592 97.13569 246.32645 99.180752 246.88867 101.33594 C 247.43528 103.31933 247.91109 105.56978 248.32617 107.99023 C 248.74126 110.41068 249.09487 113.00031 249.39648 115.66211 C 249.99972 120.98571 250.39464 126.59619 250.65234 131.71094 C 251.16775 141.94044 251.13672 150.1875 251.13672 150.1875 C 251.13672 150.1875 251.13649 158.40138 250.60547 168.58398 C 250.33996 173.67528 249.94113 179.26037 249.34375 184.55469 C 249.04506 187.20185 248.69756 189.77656 248.29102 192.18164 C 247.88447 194.58672 247.41966 196.82127 246.88867 198.78906 C 246.32645 200.97546 245.47592 203.03619 244.38086 204.93555 C 243.28579 206.83491 241.94638 208.57314 240.4082 210.11133 C 238.87003 211.64952 237.13179 212.98891 235.24023 214.0918 C 233.34868 215.19469 231.30363 216.06084 229.14844 216.6543 C 227.16509 217.16967 224.44002 217.62104 221.18945 218.01562 C 217.93889 218.41021 214.16302 218.74721 210.07812 219.03711 C 201.90834 219.61691 192.50344 220.00403 183.59375 220.26172 C 165.77436 220.77711 149.9375 220.77734 149.9375 220.77734 C 149.9375 220.77734 134.16311 220.77712 116.39062 220.24609 C 107.50438 219.98058 98.119011 219.58175 89.955078 218.98438 C 85.873112 218.68569 82.097508 218.33818 78.841797 217.93164 C 75.586086 217.5251 72.850566 217.06028 70.851562 216.5293 C 68.696381 215.93583 66.65132 215.06187 64.757812 213.94922 C 62.864305 212.83656 61.122166 211.48545 59.576172 209.93945 C 58.030177 208.39345 56.679051 206.65131 55.566406 204.75781 C 54.453762 202.86431 53.579785 200.81922 52.986328 198.66406 C 52.470959 196.71189 52.019582 194.48834 51.625 192.0918 C 51.230418 189.69526 50.893415 187.12665 50.603516 184.48242 C 50.023717 179.19396 49.636603 173.60497 49.378906 168.50586 C 48.863514 158.30764 48.863281 150.0625 48.863281 150.0625 C 48.863281 150.0625 48.863514 141.84669 49.378906 131.64844 C 49.636603 126.54931 50.023717 120.95446 50.603516 115.64258 C 50.893415 112.98664 51.230418 110.40141 51.625 107.98438 C 52.019582 105.56734 52.470959 103.31932 52.986328 101.33594 C 53.579785 99.180752 54.461579 97.127885 55.583984 95.222656 C 56.70639 93.317427 58.069243 91.559668 59.623047 89.998047 C 61.17685 88.436426 62.922896 87.069674 64.810547 85.945312 C 66.698197 84.820951 68.727616 83.939154 70.851562 83.345703 C 72.834949 82.83033 75.557517 82.378959 78.804688 81.984375 C 82.051858 81.589791 85.823306 81.252791 89.902344 80.962891 C 98.06042 80.38309 107.4497 79.995975 116.34375 79.738281 C 134.13185 79.222893 149.9375 79.222656 149.9375 79.222656 z " /></svg>
